<svg width="33" height="33" viewBox="0 0 33 33" fill="none" xmlns="http://www.w3.org/2000/svg">
<path d="M18.9433 12.3633H11.4375C10.7817 12.3633 10.25 11.8316 10.25 11.1758C10.25 10.5199 10.7817 9.98828 11.4375 9.98828H21.7292C22.385 9.98828 22.9167 10.5199 22.9167 11.1758V21.4674C22.9167 22.1233 22.385 22.6549 21.7292 22.6549C21.0734 22.6549 20.5417 22.1233 20.5417 21.4674V14.123L12.2732 22.3114C11.8072 22.7727 11.0553 22.7691 10.5938 22.3031C10.1323 21.8372 10.136 21.0852 10.602 20.6238L18.9433 12.3633ZM0.75 16.3216C0.75 25.066 7.83882 32.1549 16.5833 32.1549C25.3278 32.1549 32.4167 25.066 32.4167 16.3216C32.4167 7.5771 25.3278 0.488281 16.5833 0.488281C7.83882 0.488281 0.75 7.5771 0.75 16.3216ZM16.5833 29.7799C9.1505 29.7799 3.125 23.7544 3.125 16.3216C3.125 8.88878 9.1505 2.86328 16.5833 2.86328C24.0161 2.86328 30.0417 8.88878 30.0417 16.3216C30.0417 23.7544 24.0161 29.7799 16.5833 29.7799Z" fill="#DBC6BC"/>
</svg>
