<svg width="257" height="76" viewBox="0 0 257 76" fill="none" xmlns="http://www.w3.org/2000/svg">
<g clip-path="url(#clip0_97_10322)">
<path d="M86.4258 26.1703H87.0038C89.48 31.6464 92.4113 35.4748 96.8294 35.4748C100.874 35.4748 102.898 32.7571 102.898 30.1636C102.898 26.541 100.421 25.099 95.303 23.3286C91.1746 21.8881 86.8808 20.5702 86.8808 15.259C86.8808 9.94776 91.0502 6.44786 96.6231 6.44786C99.0583 6.44786 101.33 7.14838 102.815 7.84755L104.302 6.20117H104.796V15.383H104.218C101.947 9.94776 99.3056 7.23152 95.9617 7.23152C93.1547 7.23152 90.5952 9.0428 90.5952 12.296C90.5952 15.8368 93.2791 17.1547 98.0265 18.7193C101.949 20.0373 106.159 21.4778 106.159 26.8299C106.159 31.3588 103.475 36.2993 96.3334 36.2993C93.9801 36.2993 91.2142 35.4761 89.3981 34.4471L86.9205 36.4642H86.4258V26.1716V26.1703Z" fill="#DCC5BD"/>
<path d="M106.653 43.0927C109.048 43.0518 109.585 42.8051 109.585 41.5281V19.501C109.585 18.2662 109.007 17.4839 106.653 17.443V16.9497L113.836 16.6607V19.3784C115.57 17.6488 117.593 16.4141 120.111 16.4141C124.9 16.4141 127.625 20.4496 127.625 25.9666C127.625 31.4836 124.281 36.0534 118.873 36.0534C116.81 36.0534 115.405 35.6418 113.919 34.8595V41.5295C113.919 42.8065 114.704 43.0532 117.841 43.0941V43.5874H106.653V43.0941V43.0927ZM122.961 26.2119C122.961 21.7648 121.31 18.1013 118.048 18.1013C116.479 18.1013 115.2 18.8427 113.919 20.1607V32.1418C114.786 34.4056 116.314 35.271 118.172 35.271C121.351 35.271 122.961 32.1418 122.961 26.2133V26.2119Z" fill="#DCC5BD"/>
<path d="M128.285 35.229C130.679 35.1882 131.257 34.8992 131.257 33.6644V9.04242C131.257 7.64273 130.844 7.02534 127.954 6.9422V6.44883L135.592 6.20215V33.6644C135.592 34.8992 136.129 35.1882 138.523 35.229V35.7224H128.285V35.229Z" fill="#DCC5BD"/>
<path d="M139.018 26.4599C139.018 20.5723 143.311 16.4141 148.347 16.4141C153.879 16.4141 156.727 20.2847 156.398 25.1843H143.724V26.2133C143.724 30.9888 145.871 34.407 150.206 34.407C152.806 34.407 154.334 33.0891 156.027 30.9071L156.481 31.2369C154.83 33.9122 152.477 36.0534 148.348 36.0534C142.817 36.0534 139.019 32.1419 139.019 26.4599H139.018ZM143.765 24.4429H151.774C152.187 19.914 151.155 17.1964 148.059 17.1964C145.583 17.1964 144.055 19.7082 143.765 24.4429Z" fill="#DCC5BD"/>
<path d="M156.893 35.2302C159.246 35.1893 159.824 34.9003 159.824 33.6656V19.5024C159.824 18.2676 159.246 17.4853 156.893 17.4444V16.951L164.075 16.6621V21.1079C165.932 18.1845 168.451 16.5381 171.217 16.5381C174.479 16.5381 176.295 18.5143 176.295 22.3018V33.6656C176.295 34.9003 176.832 35.1893 179.226 35.2302V35.7235H169.484V35.2302C171.384 35.1893 171.962 34.9003 171.962 33.6656V23.0841C171.962 20.1198 171.095 18.6369 168.618 18.6369C166.843 18.6369 165.274 19.9957 164.159 22.096V33.6656C164.159 34.9003 164.737 35.1893 166.594 35.2302V35.7235H156.893V35.2302Z" fill="#DCC5BD"/>
<path d="M179.102 26.4993C179.102 20.8583 182.94 16.4126 188.596 16.4126C190.578 16.4126 191.693 16.8241 192.807 17.4007V9.04339C192.807 7.6437 192.394 7.02631 189.504 6.94318V6.44981L197.142 6.20312V33.6245C197.142 34.6535 197.761 35.2709 200.114 35.3118V35.7234L192.889 35.8883V33.6232C191.526 35.0229 189.669 36.0518 187.275 36.0518C182.156 36.0518 179.102 31.8937 179.102 26.5007V26.4993ZM192.807 32.7577V19.2937C191.898 18.0167 190.743 17.1935 188.844 17.1935C185.706 17.1935 183.807 20.8161 183.807 26.2922C183.807 30.8211 185.706 34.321 189.298 34.321C190.907 34.321 191.939 33.7036 192.807 32.7564V32.7577Z" fill="#DCC5BD"/>
<path d="M199.536 26.295C199.536 20.4482 203.912 16.4141 209.196 16.4141C214.481 16.4141 218.816 20.2847 218.816 26.1301C218.816 31.9756 214.44 36.052 209.196 36.052C203.665 36.052 199.536 32.1814 199.536 26.2937V26.295ZM213.985 26.2133C213.985 19.7899 212.128 17.1964 208.99 17.1964C205.852 17.1964 204.325 19.7899 204.325 26.2133C204.325 32.6366 206.224 35.2711 209.362 35.2711C212.499 35.2711 213.985 32.6366 213.985 26.2133Z" fill="#DCC5BD"/>
<path d="M221.87 30.2474V19.3375C221.87 18.1027 221.251 17.3613 218.856 17.3204V16.827L226.204 16.6621V29.3425C226.204 32.3068 227.071 33.9122 229.548 33.9122C231.365 33.9122 232.81 32.6366 233.883 30.5364V19.3375C233.883 18.1027 233.264 17.4022 230.911 17.3613V16.8679L238.218 16.6621V33.7078C238.218 34.779 238.837 35.1906 241.19 35.2724V35.7249H233.965V31.5258C232.19 34.4901 229.837 36.0138 227.112 36.0138C223.892 36.0138 221.868 34.1194 221.868 30.2502L221.87 30.2474Z" fill="#DCC5BD"/>
<path d="M241.356 35.2291C243.709 35.1882 244.287 34.8992 244.287 33.6645V19.5013C244.287 18.2665 243.709 17.4842 241.356 17.4433V16.9499L248.539 16.661V20.8192C249.983 18.1425 252.007 16.4961 254.111 16.4961C256.383 16.4961 257.414 17.8958 257.414 19.5013C257.414 21.1068 256.383 22.178 254.896 22.178C253.409 22.178 252.295 21.1068 252.295 19.6253C252.295 19.2137 252.42 18.6781 252.543 18.3483C250.933 18.5541 249.818 19.748 248.621 21.765V33.6631C248.621 34.8979 249.405 35.1459 252.212 35.2277V35.7211H241.354V35.2277L241.356 35.2291Z" fill="#DCC5BD"/>
<path d="M86.39 69.3426C88.7843 69.3018 89.4033 69.0128 89.4033 67.778V53.6149C89.4033 52.3801 88.7843 51.5978 86.39 51.5569V51.0635L93.738 50.7746V67.778C93.738 69.0128 94.1918 69.3018 96.7513 69.3426V69.836H86.3887V69.3426H86.39ZM88.6613 44.5571C88.6613 42.8698 89.734 41.7168 91.3452 41.7168C92.9564 41.7168 94.0701 42.788 94.0701 44.4344C94.0701 46.0808 92.9974 47.2338 91.3452 47.2338C89.693 47.2338 88.6613 46.2048 88.6613 44.5571Z" fill="#DCC5BD"/>
<path d="M97.207 69.3434C99.5603 69.3026 100.138 69.0136 100.138 67.7788V53.6157C100.138 52.3809 99.5603 51.5986 97.207 51.5577V51.0643L104.39 50.7754V55.2211C106.247 52.2977 108.765 50.6514 111.531 50.6514C114.793 50.6514 116.61 52.6276 116.61 56.415V67.7788C116.61 69.0136 117.147 69.3026 119.541 69.3434V69.8368H109.799V69.3434C111.698 69.3026 112.276 69.0136 112.276 67.7788V57.1973C112.276 54.233 111.41 52.7502 108.932 52.7502C107.157 52.7502 105.588 54.109 104.473 56.2092V67.7788C104.473 69.0136 105.051 69.3026 106.908 69.3434V69.8368H97.207V69.3434Z" fill="#DCC5BD"/>
<path d="M127.673 60.2845H128.251C130.727 65.7606 133.658 69.589 138.076 69.589C142.122 69.589 144.145 66.8714 144.145 64.2778C144.145 60.6552 141.668 59.2133 136.55 57.4429C132.422 56.0023 128.128 54.6844 128.128 49.3732C128.128 44.062 132.297 40.5621 137.87 40.5621C140.305 40.5621 142.577 41.2626 144.062 41.9618L145.549 40.3154H146.044V49.4972H145.466C143.194 44.062 140.553 41.3458 137.209 41.3458C134.402 41.3458 131.842 43.1571 131.842 46.4103C131.842 49.9511 134.526 51.269 139.274 52.8336C143.196 54.1515 147.406 55.5921 147.406 60.9442C147.406 65.4731 144.722 70.4136 137.58 70.4136C135.227 70.4136 132.461 69.5904 130.645 68.5614L128.168 70.5785H127.673V60.2859V60.2845Z" fill="#DCC5BD"/>
<path d="M151.863 64.7712V52.3375H148.024V51.8019L151.863 50.8956V45.6662L156.198 44.1016V51.0182H162.06V52.2953H156.198V65.1405C156.198 67.6115 156.9 68.5573 158.592 68.5573C159.789 68.5573 160.986 67.7341 162.06 65.7988L162.555 66.1286C161.234 68.804 159.417 70.2459 156.817 70.2459C153.597 70.2459 151.863 68.5573 151.863 64.7698V64.7712Z" fill="#DCC5BD"/>
<path d="M162.679 60.4083C162.679 54.5615 167.054 50.5273 172.339 50.5273C177.623 50.5273 181.958 54.398 181.958 60.2434C181.958 66.0889 177.582 70.1653 172.339 70.1653C166.807 70.1653 162.679 66.2947 162.679 60.407V60.4083ZM177.127 60.3265C177.127 53.9032 175.27 51.3096 172.133 51.3096C168.995 51.3096 167.467 53.9032 167.467 60.3265C167.467 66.7499 169.367 69.3843 172.504 69.3843C175.642 69.3843 177.127 66.7499 177.127 60.3265Z" fill="#DCC5BD"/>
<path d="M182.081 69.3434C184.434 69.3026 185.012 69.0136 185.012 67.7788V53.6157C185.012 52.3809 184.434 51.5986 182.081 51.5577V51.0643L189.264 50.7754V55.2211C191.121 52.2977 193.639 50.6514 196.405 50.6514C199.667 50.6514 201.484 52.6276 201.484 56.415V67.7788C201.484 69.0136 202.021 69.3026 204.415 69.3434V69.8368H194.673V69.3434C196.572 69.3026 197.15 69.0136 197.15 67.7788V57.1973C197.15 54.233 196.284 52.7502 193.806 52.7502C192.031 52.7502 190.462 54.109 189.347 56.2092V67.7788C189.347 69.0136 189.925 69.3026 191.782 69.3434V69.8368H182.081V69.3434Z" fill="#DCC5BD"/>
<path d="M204.291 60.5732C204.291 54.6855 208.585 50.5273 213.621 50.5273C219.152 50.5273 222 54.398 221.671 59.2976H208.997V60.3265C208.997 65.1021 211.144 68.5203 215.479 68.5203C218.08 68.5203 219.607 67.2023 221.301 65.0204L221.754 65.3502C220.104 68.0255 217.75 70.1666 213.622 70.1666C208.09 70.1666 204.292 66.2551 204.292 60.5732H204.291ZM209.038 58.5561H217.048C217.461 54.0273 216.429 51.3096 213.332 51.3096C210.856 51.3096 209.328 53.8215 209.038 58.5561Z" fill="#DCC5BD"/>
<path d="M3.17925 23.4014C1.30705 26.6614 0.0211178 33.4036 0.0402497 38.1956C0.0402497 38.1956 8.36125 38.6344 8.83818 38.5595C10.4248 38.3087 10.7869 37.8003 13.1538 37.8589C13.9792 37.8794 15.6942 38.1261 16.3966 38.2296C17.0991 38.3332 17.3874 36.6637 17.4503 35.9018C17.5118 35.14 17.2849 29.0015 16.9747 28.117C16.6645 27.2311 16.7684 26.243 17.0567 25.7687C16.8913 24.9033 14.929 24.7602 14.2689 24.7806C13.2153 24.8133 7.37186 24.5953 6.8143 24.677C6.50409 25.0273 6.23625 25.0477 5.61719 24.966C4.99814 24.8842 4.85329 24.1837 4.50208 23.813C4.11671 23.4055 3.18061 23.4014 3.18061 23.4014H3.17925Z" fill="#DCC5BD"/>
<path d="M1.00581 46.5995C0.427753 45.8581 1.84492e-05 40.4747 1.84492e-05 40.4747C-0.00954749 40.1871 3.7034 40.3234 5.19023 40.4051C6.49119 40.4774 9.79144 40.5005 11.1375 40.4883C11.4409 40.461 11.1375 41.0648 11.3302 41.4219C15.7169 41.1016 19.2262 39.248 20.959 39.248C21.1653 39.248 21.3362 39.2521 21.4687 39.2603C22.1069 39.2998 23.8616 39.6242 24.8223 39.6787C27.4092 39.8259 32.5775 40.3179 32.5871 40.4747C32.6418 41.381 31.9475 44.0645 31.5676 44.8141C31.4583 45.0294 30.5864 45.5337 25.235 46.1865C25.235 46.1865 18.4705 46.545 12.1009 46.654C6.47616 46.7508 1.16433 46.5995 1.00444 46.5995H1.00581Z" fill="#DCC5BD"/>
<path d="M37.0483 39.5406C35.3141 39.7055 34.3179 39.9086 34.2674 40.3093C34.24 40.5287 34.6117 41.769 34.7907 42.6712C34.9588 43.5189 33.6797 46.2529 33.8615 46.4764C34.2523 46.9534 36.0343 47.2028 37.4883 47.2028C39.1637 47.2028 40.2146 43.6879 40.2693 43.3581C40.324 43.0283 39.6065 40.3516 39.2225 39.651C39.0572 39.3485 37.0469 39.5406 37.0469 39.5406H37.0483Z" fill="#DCC5BD"/>
<path d="M29.0169 37.4879C28.1642 37.4879 27.8991 36.8323 27.2199 36.85C23.0068 36.9536 21.6457 36.2354 21.4024 35.7093C21.0977 35.051 21.084 34.0179 20.6741 32.9781C20.3392 32.1276 19.5876 31.3181 19.4551 30.3422C19.8268 28.3238 19.671 26.1036 20.2395 25.3377C20.5798 24.8934 22.2224 24.7816 25.3846 23.461C26.3863 23.3915 27.5943 23.3506 29.0484 23.3506C30.5584 23.3506 32.0097 23.3915 33.1057 23.4283C35.0298 23.4923 36.8077 23.5836 38.2891 23.7949C40.1763 24.0634 44.4195 24.6944 47.5885 24.6944L47.4027 23.829C50.9954 24.0143 52.7719 24.7966 53.1846 25.0719C53.5973 25.3459 54.9324 27.626 54.5061 28.3129C53.1805 30.4458 52.4917 33.4333 51.7251 34.1065C51.1949 34.5726 49.0931 35.4858 46.3627 35.9873C43.1417 36.5788 40.425 36.4507 38.371 36.6252C37.9064 36.6647 35.739 37.2126 35.4179 37.2426C34.9041 37.2903 34.1005 37.3175 33.0838 37.3311C32.7121 37.3366 32.1259 36.8691 31.6995 36.8718C31.433 36.8732 30.952 37.3979 30.6691 37.4238C30.2359 37.4647 29.6893 37.4892 29.0156 37.4892L29.0169 37.4879Z" fill="#DCC5BD"/>
<path d="M4.44632 55.771C3.25468 54.5131 1.6107 50.0591 1.63803 48.6308C1.94824 48.5082 7.71241 49.1419 9.84288 49.3995C11.7779 49.6339 10.9471 48.9879 12.1278 48.9879C12.2631 48.9879 18.8075 49.1583 19.5742 49.1583C20.0771 49.1583 21.5899 49.0765 21.7101 49.2346C22.4809 50.2513 21.8768 53.48 21.8481 53.9856C21.7648 55.4139 22.4262 57.0058 22.0955 56.9785C21.3835 56.9785 18.1448 56.7305 17.2674 56.6637C16.166 56.5806 14.7707 57.6368 14.138 57.5823C13.1158 57.4937 11.9638 56.5669 11.0263 56.6487C9.23476 56.8041 5.38105 56.7591 4.44495 55.7696L4.44632 55.771Z" fill="#DCC5BD"/>
<path d="M17.3606 63.6803C17.5669 63.2265 16.926 62.7822 17.0572 62.0871C17.0572 62.0871 17.6079 61.3457 18.1587 60.9613C18.3609 60.821 18.7531 61.3116 18.8501 61.114C19.2177 60.3576 19.4774 59.7892 19.4801 59.5889C19.2656 59.2386 16.9055 59.2904 14.1382 59.15C12.8181 59.0833 10.6822 58.793 9.40172 58.793C7.38331 58.793 6.78612 59.5071 6.75879 59.7538C7.71675 62.4169 13.541 67.9639 14.827 67.9652L17.3606 63.6817V63.6803Z" fill="#DCC5BD"/>
<path d="M53.1783 58.7728C52.2395 58.7728 49.9068 59.0617 47.1928 59.1762C45.8084 59.2348 44.5881 59.1653 43.4675 59.0672C43.1272 59.0372 42.4399 58.5793 42.116 58.5465C41.8276 58.5166 41.9001 58.9132 41.6227 58.8859C40.8041 58.8041 40.0251 58.7387 39.253 58.7387C38.9989 58.7387 36.427 59.1871 36.2247 59.1776C34.3676 59.0985 31.0509 59.5346 27.5785 59.5346C27.2532 59.5346 26.6889 59.8045 26.1737 59.8086C25.6585 59.8127 25.1638 59.5551 24.9342 59.5524C23.1741 59.5346 22.8488 59.4965 22.6766 59.5605C21.5369 59.9817 21.3921 61.0365 19.8683 62.9105C18.9199 64.0758 19.5486 66.146 18.8216 67.3863C18.5236 67.8946 17.2104 68.6292 16.866 69.3079C16.7553 69.5819 17.1133 70.1775 20.8413 72.0951C24.2468 73.8464 33.0188 75.49 37.5435 75.5568C37.6774 75.5595 37.8127 75.5595 37.9452 75.5595C47.4907 75.5595 55.332 72.493 60.2612 68.5665C59.8007 67.9982 58.7881 66.9079 58.1758 65.4973C58.1143 65.3542 57.2206 64.9385 57.0402 64.64C56.8585 64.3402 57.1017 63.9177 56.9295 63.6233C56.126 62.2482 55.6504 61.1101 55.5807 60.6577C55.4154 59.5864 56.0208 59.4488 56.0495 59.2852C56.0768 59.1203 53.1797 58.7714 53.1797 58.7714L53.1783 58.7728Z" fill="#DCC5BD"/>
<path d="M31.8667 57.344C27.5046 57.344 26.0451 57.1286 25.5942 56.9787C25.2635 56.8683 24.4872 56.4022 24.2454 55.5777C24.1565 55.2737 24.6854 55.0775 24.6307 54.7259C24.5897 54.4628 24.0663 54.377 24.0253 54.0948C23.7561 52.2754 24.08 49.6463 24.3287 49.262C24.4626 49.0535 25.4575 48.74 29.6652 48.7455C30.1694 48.7455 30.9798 48.2153 31.7628 48.3557C33.3658 48.6433 34.6545 49.6736 36.692 49.9762C37.5366 50.1016 38.5437 49.9571 38.9769 50.0579C39.4456 50.1683 39.1792 54.7068 39.1696 54.918C39.1423 55.549 35.7546 57.2254 35.2653 57.2418C34.716 57.2608 33.4218 57.344 31.8681 57.344H31.8667Z" fill="#DCC5BD"/>
<path d="M55.8554 56.8425C54.5981 56.8425 51.9128 56.4991 50.6337 56.2701C50.1541 56.1843 49.6662 56.097 49.1633 56.018C48.122 55.8558 46.4684 56.2333 45.2536 56.2102C43.6807 56.1802 41.4368 55.68 41.3712 55.1662C41.3985 54.8364 42.0462 53.6588 42.243 52.9746C42.4425 52.2755 42.5273 51.0748 42.0599 50.0035C41.2919 48.2454 41.2167 47.5721 41.2892 46.7912C41.3493 46.1411 41.6677 45.536 41.8946 45.0331C42.2799 44.1813 42.776 43.001 42.638 41.848C42.5409 41.0398 42.5409 40.5369 42.6831 40.1798C42.8074 39.8663 43.4634 39.4588 43.4634 39.4588C43.4634 39.4588 45.177 39.4479 46.355 39.3484C47.2761 39.2708 48.5033 38.3004 49.3956 38.1109C49.9231 37.9992 50.4082 37.8438 50.8701 37.668C51.123 37.5712 51.8404 37.8329 52.0823 37.728C52.2818 37.6407 52.0058 37.1883 52.1998 37.101C53.043 36.7221 55.0259 35.6455 55.8827 35.5037C56.6288 35.3811 56.3993 35.9044 57.5062 35.6795C58.4778 35.4819 60.5563 34.5879 62.27 34.3507C63.2321 34.2171 63.3715 34.9817 64.5836 34.6247C65.7958 34.2676 66.2358 33.2522 67.0612 33.0873C67.8866 32.9224 69.9651 33.4144 71.6569 33.1691C72.2951 33.0764 75.046 33.0873 75.046 33.0873C75.046 33.0873 75.1499 33.9159 75.3207 35.9439C75.3863 36.7181 75.5284 39.6401 75.0037 44.1417C74.4106 49.2267 72.7871 53.19 70.9696 55.909C70.7509 56.236 66.4831 55.3911 65.7384 55.1948C65.2847 55.0749 64.7599 55.0149 64.1777 55.0149C62.0801 55.0149 61.0538 55.729 58.7388 56.4132L58.6377 56.4432C57.7303 56.7117 56.8188 56.8425 55.8526 56.8425H55.8554Z" fill="#DCC5BD"/>
<path d="M64.121 11.2577C65.6871 12.2717 71.249 19.9884 72.0129 22.6787C71.9514 23.0494 71.3255 23.7404 68.7701 23.6873C67.7793 23.6668 65.7417 22.815 63.9515 23.0631C61.0599 23.4201 55.8014 23.8304 54.6726 23.3097C52.4068 22.2671 51.8944 21.2777 49.358 21.2777C49.0205 21.2777 44.8429 21.598 44.299 21.3813C44.0926 21.2995 42.573 20.633 42.6878 20.2078C43.5966 16.851 43.5488 13.7 44.7117 12.6288C45.1449 12.134 45.8063 11.6952 45.8063 11.6952C47.8165 11.7497 50.2941 11.1187 51.5336 10.7343C52.7731 10.35 52.9931 10.1851 54.0399 10.4876C55.0867 10.7902 58.6657 10.6526 59.4638 10.6526C60.2618 10.6526 59.9598 10.8992 61.254 11.1745C62.5481 11.4485 64.121 11.259 64.121 11.259V11.2577Z" fill="#DCC5BD"/>
<path d="M73.2865 25.6193C74.1666 27.3734 74.8007 30.0637 74.8007 30.7547C74.7652 30.8828 74.1926 30.6566 73.3959 30.7275C72.8069 30.7792 72.3505 31.2331 71.6617 31.2767C71.0372 31.3162 70.1858 30.9469 69.5135 30.9469C69.0721 30.9469 67.7793 31.1118 67.7793 31.1118C67.7793 31.1118 67.8914 28.8862 67.808 28.4787C67.6959 27.9267 67.972 27.4592 68.192 27.1035C68.412 26.7464 68.4667 26.0868 68.4667 26.0868C68.4667 26.0868 69.4861 26.1686 69.8988 26.0323C70.3115 25.8946 70.8623 25.2364 71.275 25.2091C71.6877 25.1818 73.0378 25.1273 73.2852 25.6207L73.2865 25.6193Z" fill="#DCC5BD"/>
<path d="M42.638 11.3382C42.5833 11.5849 42.1638 11.6953 40.9312 11.6953C40.4201 11.6953 39.7053 11.8888 38.8799 11.8479C38.3948 11.8248 37.8427 11.7921 37.2428 11.758C35.3474 11.649 33.1076 11.5577 30.9361 11.5577C29.4452 11.5577 29.8005 11.8139 28.8439 11.942C28.054 12.0483 25.2006 12.1069 23.062 12.1069C19.5157 12.1069 14.9214 11.9761 12.5435 11.8875C12.3071 11.8779 11.0417 11.9079 10.946 11.6953C10.8531 11.4881 14.6357 7.93372 15.5445 7.79607C17.8021 7.79607 23.6674 7.71429 27.2013 8.15314C27.558 8.19812 28.054 8.17495 28.6375 8.17495C29.0666 8.17495 29.5436 8.17222 30.0533 8.1695C30.6355 8.16677 31.3133 8.31805 31.9556 8.31805C33.303 8.31805 35.1875 8.55247 36.7467 8.67513C38.582 8.81824 39.7942 8.76236 40.5731 8.97497C41.0077 9.09354 42.1638 8.97769 42.392 8.97769C42.6954 9.36203 42.6954 11.0915 42.6394 11.3396L42.638 11.3382Z" fill="#DCC5BD"/>
<path d="M46.3563 8.48283C45.7358 8.44467 41.0895 6.38534 40.4951 6.26268C39.0164 5.95875 38.1746 6.01054 36.8012 6.01054C36.4131 6.01054 33.7606 6.99183 33.5242 6.7247C33.1115 6.25723 32.461 5.9792 30.8854 5.9792C29.8919 5.9792 28.9449 5.66028 28.1263 5.59759C26.5903 5.48038 21.4028 5.55534 19.4336 5.47629C21.7117 3.8967 29.3384 0.216885 39.8719 0.587591C48.9445 1.12185 58.259 6.16591 58.1401 6.50527C57.89 7.21807 53.845 7.93358 53.0743 8.20753C52.9144 8.26477 49.8806 8.70226 46.3563 8.48147V8.48283Z" fill="#DCC5BD"/>
<path d="M59.4076 57.555C59.4076 57.555 58.3881 60.4661 58.5822 61.5646C58.7749 62.6631 58.9129 63.35 58.9949 63.35C59.5456 63.4604 60.5924 66.0131 61.1144 66.2066C63.372 65.9872 63.9118 64.3531 64.6497 64.409C64.8752 64.4253 65.0884 64.3177 65.2045 64.1228C65.8728 63.0038 67.1669 61.6055 67.3924 61.4556C67.6398 61.2907 68.3285 59.0392 68.4119 58.4899C68.4939 57.9407 66.0163 57.5018 65.4109 57.3914C64.8055 57.281 59.8763 57.5291 59.4076 57.5563V57.555Z" fill="#DCC5BD"/>
<path d="M65.7411 29.8747C64.887 30.5343 63.0968 32.7354 60.5646 32.8676C59.5178 32.9221 57.0675 33.0325 55.7188 31.7691C56.1588 31.3016 56.2148 31.1381 56.4622 31.0004C56.7095 30.8628 57.0675 30.9459 56.9582 30.4239C56.8475 29.9019 56.7655 28.9683 57.1509 28.3101C57.5363 27.6504 58.1417 26.0027 58.1143 25.4821C61.9147 25.2354 65.025 25.6742 65.2464 25.8119C65.4678 25.9495 65.6045 29.1619 65.7425 29.876L65.7411 29.8747Z" fill="#DCC5BD"/>
<path d="M31.2221 14.3286C31.6744 16.5283 31.9573 20.08 32.1554 20.5038C32.3536 20.9263 33.1735 21.4061 33.4837 21.4619C33.7939 21.5178 34.4444 20.9549 34.756 20.8977C35.0676 20.8418 35.7454 21.5751 35.7454 21.5751C35.7454 21.5751 36.9042 21.2929 37.3853 21.3774C37.8663 21.4619 38.9404 21.5751 39.5622 21.3216C40.184 21.0681 41.0039 19.4612 41.0326 18.6149C41.0613 17.7685 39.8738 15.8237 39.8451 15.288C39.8164 14.7524 39.9858 14.1882 39.9858 14.1882C39.1659 13.7084 38.883 13.6812 38.0631 13.7084C37.2431 13.7371 36.8468 14.2441 35.8575 14.2999C34.8681 14.3558 31.2207 14.3286 31.2207 14.3286H31.2221Z" fill="#DCC5BD"/>
<path d="M4.06094 21.1141C6.23651 16.6656 8.27405 14.7153 8.27405 14.7153C10.0369 14.962 11.6604 14.6335 12.5692 14.3855C13.4779 14.1388 15.9008 14.2751 17.4423 14.5504C18.9838 14.8243 19.7832 14.4127 19.7832 14.4127C19.7832 14.4127 21.0227 14.6867 21.4901 14.7425C21.9588 14.7971 23.4169 14.8243 23.5823 14.5504C23.7477 14.2764 23.913 14.2764 24.4364 14.166C25.8918 13.8607 27.175 13.7967 27.9881 14.4127C28.6768 14.9347 28.3461 16.0605 28.7042 16.6097C29.0622 17.1589 29.4203 17.8186 29.4203 18.0653C29.4203 18.312 28.7042 18.9988 28.5662 19.5754C28.4281 20.1519 28.368 20.6943 27.6027 20.9764C27.0793 21.1686 24.1057 20.757 23.3623 20.8388C22.6189 20.9205 19.5619 21.5529 18.1024 21.8269C16.6429 22.1008 4.33425 21.6347 4.05957 21.1127L4.06094 21.1141Z" fill="#DCC5BD"/>
</g>
<defs>
<clipPath id="clip0_97_10322">
<rect width="257" height="75" fill="white" transform="translate(0 0.561523)"/>
</clipPath>
</defs>
</svg>
