<svg width="71" height="71" viewBox="0 0 71 71" fill="none" xmlns="http://www.w3.org/2000/svg">
<circle cx="35" cy="35" r="35" transform="matrix(1 0 0 -1 0.117188 70.4277)" fill="#DCC5BD"/>
<path d="M49.3675 49.3031L42.4911 42.6076M42.4911 42.6076C43.6673 41.4623 44.6004 40.1027 45.237 38.6063C45.8735 37.1099 46.2012 35.5061 46.2012 33.8864C46.2012 32.2667 45.8735 30.6629 45.237 29.1665C44.6004 27.6701 43.6673 26.3105 42.4911 25.1652C41.3149 24.0199 39.9185 23.1114 38.3816 22.4916C36.8448 21.8718 35.1976 21.5527 33.5342 21.5527C31.8707 21.5527 30.2236 21.8718 28.6867 22.4916C27.1499 23.1114 25.7535 24.0199 24.5773 25.1652C22.2017 27.4782 20.8672 30.6153 20.8672 33.8864C20.8672 37.1575 22.2017 40.2946 24.5773 42.6076C26.9528 44.9206 30.1747 46.22 33.5342 46.22C36.8937 46.22 40.1156 44.9206 42.4911 42.6076ZM28.7842 33.8864H38.2842" stroke="#283C28" stroke-width="2.5" stroke-linecap="round" stroke-linejoin="round"/>
</svg>
