<svg width="70" height="71" viewBox="0 0 70 71" fill="none" xmlns="http://www.w3.org/2000/svg">
<circle cx="35" cy="35" r="35" transform="matrix(1 0 0 -1 0.0078125 70.4277)" fill="#DCC5BD"/>
<path d="M49.2581 49.3031L42.3817 42.6076M42.3817 42.6076C43.558 41.4623 44.491 40.1027 45.1276 38.6063C45.7642 37.1099 46.0918 35.5061 46.0918 33.8864C46.0918 32.2667 45.7642 30.6629 45.1276 29.1665C44.491 27.6701 43.558 26.3105 42.3817 25.1652C41.2055 24.0199 39.8091 23.1114 38.2723 22.4916C36.7354 21.8718 35.0883 21.5527 33.4248 21.5527C31.7614 21.5527 30.1142 21.8718 28.5774 22.4916C27.0405 23.1114 25.6441 24.0199 24.4679 25.1652C22.0924 27.4782 20.7578 30.6153 20.7578 33.8864C20.7578 37.1575 22.0924 40.2946 24.4679 42.6076C26.8434 44.9206 30.0653 46.22 33.4248 46.22C36.7843 46.22 40.0062 44.9206 42.3817 42.6076ZM33.4248 29.2614V38.5114M28.6748 33.8864H38.1748" stroke="#283C28" stroke-width="2.5" stroke-linecap="round" stroke-linejoin="round"/>
</svg>
