<svg width="32" height="33" viewBox="0 0 32 33" fill="none" xmlns="http://www.w3.org/2000/svg">
<path d="M18.332 12.8113H10.8262C10.1703 12.8113 9.63867 12.2796 9.63867 11.6238C9.63867 10.9679 10.1703 10.4363 10.8262 10.4363H21.1178C21.7737 10.4363 22.3053 10.9679 22.3053 11.6238V21.9154C22.3053 22.5713 21.7737 23.1029 21.1178 23.1029C20.462 23.1029 19.9303 22.5713 19.9303 21.9154V14.571L11.6619 22.7594C11.1959 23.2207 10.444 23.2171 9.98249 22.7511C9.52101 22.2852 9.52467 21.5332 9.99068 21.0718L18.332 12.8113ZM0.138672 16.7696C0.138672 25.514 7.22749 32.6029 15.972 32.6029C24.7164 32.6029 31.8053 25.514 31.8053 16.7696C31.8053 8.0251 24.7164 0.936279 15.972 0.936279C7.22749 0.936279 0.138672 8.0251 0.138672 16.7696ZM15.972 30.2279C8.53917 30.2279 2.51367 24.2024 2.51367 16.7696C2.51367 9.33678 8.53917 3.31128 15.972 3.31128C23.4048 3.31128 29.4303 9.33678 29.4303 16.7696C29.4303 24.2024 23.4048 30.2279 15.972 30.2279Z" fill="#DCC5BD"/>
</svg>
